<?xml version="1.0" encoding="utf-8"?>
<!-- Generator: Adobe Illustrator 28.2.0, SVG Export Plug-In . SVG Version: 6.00 Build 0)  -->
<svg version="1.1" id="Layer_1" xmlns="http://www.w3.org/2000/svg" xmlns:xlink="http://www.w3.org/1999/xlink" x="0px" y="0px"
	 viewBox="0 0 19.8 22" style="enable-background:new 0 0 19.8 22;" xml:space="preserve">
<style type="text/css">
	.st0{fill:#BD2334;}
</style>
<path class="st0" d="M19.8,18.5l-0.7,0.8l-1-0.9l-0.8,0.8l-1,1l1.1,1L16.7,22l-1.1-1l-1.3-1.2l0.7-0.8l0.4-0.4l-0.1-0.1L14.7,18
	l-0.4,0.4l-0.7,0.8L12.4,18l-1.1-1l0.7-0.8l1.1,1l1-1l0.8-0.8l-4.2-4c0,0,0.7-0.8,0.7-0.8L19.8,18.5z M0.2,11.7
	c0.1,0.4,0.4,0.8,0.7,1.1C1.8,13.8,3,14,4.5,13.5l0,0l0.2-0.1l0,0.1c-0.6,1.6-0.5,2.9,0.4,3.8c0.6,0.6,1.3,1,2.2,1.1
	c0.2,0,0.3,0,0.5,0c0.7,0,1.3-0.3,1.8-0.7c0.5-0.5,1.8-2.6,0.7-6l0-0.1l-0.7,0.2l0,0.1c0.4,2.5,0.1,4.1-0.8,5
	c-0.4,0.3-0.8,0.5-1.4,0.4c-0.6,0-1.1-0.3-1.5-0.7c-1-1.1-0.4-2.9,1.8-5.3l0.1-0.1l-0.5-0.5l-0.1,0.1c-2.6,2-4.4,2.5-5.4,1.4
	c-0.4-0.4-0.6-0.9-0.6-1.5c0-0.6,0.1-1,0.5-1.4c0.9-0.8,2.6-0.9,5-0.4l0.1,0L7,8.1l-0.1,0c-1.5-0.6-2.6-1.3-3.3-2
	C3.2,5.6,3,5.1,3,4.5c0-0.5,0.2-1,0.7-1.4c1-0.9,2-0.8,3,0.2c0.7,0.7,1.3,1.9,1.7,3.4l0,0.1l0.7-0.2l0-0.1c-0.4-2.5-0.1-4.1,0.8-5
	c0.4-0.3,0.8-0.5,1.4-0.4c0.6,0,1.1,0.3,1.5,0.7c1,1.1,0.4,2.9-1.8,5.3l-0.1,0.1l0.5,0.5l0.1-0.1c2.6-2,4.4-2.5,5.4-1.4
	c0.4,0.4,0.6,0.9,0.6,1.5c0,0.6-0.1,1-0.5,1.4c-0.9,0.8-2.6,0.9-5,0.4l-0.1,0l-0.2,0.7l0.1,0c3.2,1.5,5.5,0.3,6-0.2
	c0.4-0.4,0.7-0.9,0.8-1.6c0.1-0.6,0.1-1.3-0.2-1.8c-0.1-0.4-0.4-0.8-0.7-1.1c-0.9-0.9-2.1-1.2-3.6-0.7l-0.2,0l0,0
	c0.6-1.6,0.5-2.9-0.3-3.8c-0.6-0.6-1.3-1-2.2-1.1C10.4-0.1,9.6,0.2,9,0.7C8.4,1.3,8,2,7.9,2.9l0,0.1L7.4,2.5C6.7,1.8,6,1.4,5.1,1.3
	c-0.8,0-1.6,0.3-2.3,0.9C2.1,2.9,1.8,3.7,1.8,4.5c0,0.8,0.4,1.6,1.1,2.4l0.4,0.4c-1,0.1-1.8,0.5-2.4,1C0.5,8.7,0.2,9.2,0.1,9.9
	C-0.1,10.5,0,11.1,0.2,11.7z"/>
</svg>

